<svg width="18" height="14" viewBox="0 0 18 14" fill="none" xmlns="http://www.w3.org/2000/svg">
<path d="M16.5 0.75H1.5C1.33424 0.75 1.17527 0.815848 1.05806 0.933058C0.940848 1.05027 0.875 1.20924 0.875 1.375V12C0.875 12.3315 1.0067 12.6495 1.24112 12.8839C1.47554 13.1183 1.79348 13.25 2.125 13.25H15.875C16.2065 13.25 16.5245 13.1183 16.7589 12.8839C16.9933 12.6495 17.125 12.3315 17.125 12V1.375C17.125 1.20924 17.0592 1.05027 16.9419 0.933058C16.8247 0.815848 16.6658 0.75 16.5 0.75ZM9 7.40234L3.10703 2H14.893L9 7.40234ZM6.71172 7L2.125 11.2039V2.79609L6.71172 7ZM7.63672 7.84766L8.57422 8.71094C8.68953 8.81679 8.84035 8.87552 8.99687 8.87552C9.1534 8.87552 9.30422 8.81679 9.41953 8.71094L10.357 7.84766L14.8883 12H3.10703L7.63672 7.84766ZM11.2883 7L15.875 2.79531V11.2047L11.2883 7Z" fill="#7A7B9F"/>
</svg>
