<svg width="18" height="17" viewBox="0 0 18 17" fill="none" xmlns="http://www.w3.org/2000/svg">
<path d="M17.0407 15.5625C15.8508 13.5055 14.0172 12.0305 11.8774 11.3312C12.9358 10.7011 13.7582 9.74099 14.2182 8.59827C14.6781 7.45554 14.7503 6.19343 14.4235 5.00574C14.0968 3.81805 13.3892 2.77045 12.4094 2.02384C11.4296 1.27722 10.2318 0.872864 9.00003 0.872864C7.76821 0.872864 6.57044 1.27722 5.59067 2.02384C4.6109 2.77045 3.90331 3.81805 3.57654 5.00574C3.24978 6.19343 3.32193 7.45554 3.78189 8.59827C4.24186 9.74099 5.06422 10.7011 6.12268 11.3312C3.98284 12.0297 2.14925 13.5047 0.959403 15.5625C0.91577 15.6336 0.886828 15.7128 0.874285 15.7953C0.861743 15.8778 0.865854 15.962 0.886376 16.0429C0.906897 16.1238 0.943414 16.1998 0.993772 16.2663C1.04413 16.3329 1.10731 16.3887 1.17958 16.4304C1.25185 16.4722 1.33175 16.499 1.41457 16.5094C1.49738 16.5198 1.58143 16.5134 1.66176 16.4908C1.74209 16.4682 1.81708 16.4296 1.88228 16.3776C1.94749 16.3255 2.00161 16.2608 2.04143 16.1875C3.51331 13.6437 6.11487 12.125 9.00003 12.125C11.8852 12.125 14.4867 13.6437 15.9586 16.1875C15.9984 16.2608 16.0526 16.3255 16.1178 16.3776C16.183 16.4296 16.258 16.4682 16.3383 16.4908C16.4186 16.5134 16.5027 16.5198 16.5855 16.5094C16.6683 16.499 16.7482 16.4722 16.8205 16.4304C16.8927 16.3887 16.9559 16.3329 17.0063 16.2663C17.0566 16.1998 17.0932 16.1238 17.1137 16.0429C17.1342 15.962 17.1383 15.8778 17.1258 15.7953C17.1132 15.7128 17.0843 15.6336 17.0407 15.5625ZM4.62503 6.49999C4.62503 5.6347 4.88162 4.78883 5.36235 4.06937C5.84308 3.3499 6.52636 2.78915 7.32579 2.45802C8.12521 2.12688 9.00488 2.04024 9.85355 2.20905C10.7022 2.37786 11.4818 2.79454 12.0936 3.4064C12.7055 4.01825 13.1222 4.7978 13.291 5.64647C13.4598 6.49514 13.3731 7.3748 13.042 8.17423C12.7109 8.97366 12.1501 9.65694 11.4306 10.1377C10.7112 10.6184 9.86532 10.875 9.00003 10.875C7.84009 10.8737 6.72801 10.4124 5.90781 9.59221C5.0876 8.77201 4.62627 7.65993 4.62503 6.49999Z" fill="#7A7B9F"/>
</svg>
