<svg width="18" height="14" viewBox="0 0 18 14" fill="none" xmlns="http://www.w3.org/2000/svg">
<path d="M1.75 1.375V12.625C1.75 12.7908 1.68415 12.9497 1.56694 13.0669C1.44973 13.1842 1.29076 13.25 1.125 13.25C0.95924 13.25 0.800269 13.1842 0.683058 13.0669C0.565848 12.9497 0.5 12.7908 0.5 12.625V1.375C0.5 1.20924 0.565848 1.05027 0.683058 0.933058C0.800269 0.815848 0.95924 0.75 1.125 0.75C1.29076 0.75 1.44973 0.815848 1.56694 0.933058C1.68415 1.05027 1.75 1.20924 1.75 1.375ZM8.9375 5.63281L7.375 6.14062V4.5C7.375 4.33424 7.30915 4.17527 7.19194 4.05806C7.07473 3.94085 6.91576 3.875 6.75 3.875C6.58424 3.875 6.42527 3.94085 6.30806 4.05806C6.19085 4.17527 6.125 4.33424 6.125 4.5V6.14062L4.5625 5.63281C4.40482 5.58101 4.23302 5.59397 4.0849 5.66884C3.93677 5.74371 3.82446 5.87435 3.77266 6.03203C3.72086 6.18971 3.73382 6.36151 3.80868 6.50963C3.88355 6.65776 4.0142 6.77007 4.17188 6.82188L5.73438 7.32891L4.77031 8.65703C4.71937 8.72323 4.6822 8.79897 4.66103 8.87977C4.63985 8.96058 4.63508 9.04481 4.64701 9.12748C4.65894 9.21016 4.68733 9.28961 4.73048 9.36113C4.77364 9.43265 4.8307 9.49479 4.89828 9.54389C4.96586 9.59298 5.0426 9.62803 5.12396 9.64696C5.20532 9.66589 5.28965 9.66832 5.37196 9.65411C5.45428 9.63989 5.53291 9.60932 5.60321 9.5642C5.67351 9.51908 5.73405 9.46032 5.78125 9.39141L6.74531 8.06328L7.70937 9.39141C7.75658 9.46032 7.81712 9.51908 7.88742 9.5642C7.95772 9.60932 8.03635 9.63989 8.11866 9.65411C8.20098 9.66832 8.2853 9.66589 8.36666 9.64696C8.44802 9.62803 8.52476 9.59298 8.59235 9.54389C8.65993 9.49479 8.71699 9.43265 8.76014 9.36113C8.8033 9.28961 8.83168 9.21016 8.84361 9.12748C8.85554 9.04481 8.85078 8.96058 8.8296 8.87977C8.80842 8.79897 8.77126 8.72323 8.72031 8.65703L7.75625 7.32891L9.31875 6.82188C9.46947 6.76582 9.59277 6.65382 9.66304 6.50918C9.7333 6.36454 9.74511 6.19839 9.69602 6.04526C9.64692 5.89213 9.54069 5.76382 9.39942 5.68701C9.25815 5.61019 9.09271 5.59078 8.9375 5.63281ZM17.2188 6.03437C17.1675 5.87813 17.0568 5.74837 16.9106 5.6732C16.7643 5.59804 16.5944 5.58353 16.4375 5.63281L14.875 6.14062V4.5C14.875 4.33424 14.8092 4.17527 14.6919 4.05806C14.5747 3.94085 14.4158 3.875 14.25 3.875C14.0842 3.875 13.9253 3.94085 13.8081 4.05806C13.6908 4.17527 13.625 4.33424 13.625 4.5V6.14062L12.0625 5.63359C11.9048 5.58231 11.7332 5.59577 11.5855 5.671C11.4377 5.74624 11.3259 5.87709 11.2746 6.03477C11.2233 6.19244 11.2368 6.36404 11.312 6.5118C11.3873 6.65955 11.5181 6.77137 11.6758 6.82266L13.2383 7.32969L12.2742 8.65781C12.2233 8.72401 12.1861 8.79975 12.1649 8.88055C12.1438 8.96136 12.139 9.04559 12.1509 9.12826C12.1628 9.21094 12.1912 9.29039 12.2344 9.36191C12.2775 9.43343 12.3346 9.49557 12.4022 9.54467C12.4698 9.59376 12.5465 9.62881 12.6279 9.64774C12.7092 9.66667 12.7936 9.6691 12.8759 9.65489C12.9582 9.64067 13.0368 9.6101 13.1071 9.56498C13.1774 9.51986 13.238 9.4611 13.2852 9.39219L14.2492 8.06406L15.2133 9.39219C15.2605 9.4611 15.321 9.51986 15.3913 9.56498C15.4616 9.6101 15.5403 9.64067 15.6226 9.65489C15.7049 9.6691 15.7892 9.66667 15.8706 9.64774C15.9519 9.62881 16.0287 9.59376 16.0963 9.54467C16.1638 9.49557 16.2209 9.43343 16.264 9.36191C16.3072 9.29039 16.3356 9.21094 16.3475 9.12826C16.3594 9.04559 16.3547 8.96136 16.3335 8.88055C16.3123 8.79975 16.2752 8.72401 16.2242 8.65781L15.2602 7.32969L16.8227 6.82266C16.9795 6.77038 17.1093 6.65807 17.1835 6.51033C17.2578 6.36258 17.2704 6.19144 17.2188 6.03437Z" fill="#7A7B9F"/>
</svg>
